<svg width="341" height="115" viewBox="0 0 341 115" fill="none" xmlns="http://www.w3.org/2000/svg">
<path fill-rule="evenodd" clip-rule="evenodd" d="M40.3919 18.1081C46.1015 18.1081 50.8332 19.6605 54.5968 22.7654C58.3603 25.8703 60.9682 30.2525 62.4104 35.9317H78.3834C76.635 26.0963 72.338 18.2653 65.4924 12.4387C58.6468 6.61212 50.28 3.70374 40.3919 3.70374C29.0518 3.70374 19.4897 7.46695 11.6958 14.9934C3.90189 22.5198 0 32.0703 0 43.6449C0 55.2194 3.90189 64.7699 11.6958 72.3062C19.4897 79.8326 29.0616 83.5958 40.3919 83.5958C50.28 83.5958 58.6468 80.6874 65.4924 74.8608C72.338 69.0342 76.635 61.2032 78.3834 51.3678H62.4104C60.9682 57.047 58.3603 61.4292 54.5968 64.5341C50.8332 67.639 46.0916 69.1915 40.3919 69.1915C33.2401 69.1915 27.3428 66.8235 22.71 62.0974C18.0672 57.3712 15.7458 51.2204 15.7458 43.6547C15.7458 36.089 18.0672 29.9381 22.71 25.212C27.3527 20.4859 33.25 18.1179 40.3919 18.1179V18.1081Z" fill="white"/>
<path fill-rule="evenodd" clip-rule="evenodd" d="M107.939 5.05957H92.4207V82.2398H147.995V67.9337H107.939V5.05957Z" fill="white"/>
<path fill-rule="evenodd" clip-rule="evenodd" d="M297.807 42.2888C301.077 41.0803 303.704 38.9186 305.68 35.8236C307.655 32.7187 308.643 29.2404 308.643 25.3789C308.643 19.0218 306.342 14.05 301.738 10.4538C297.135 6.85766 290.724 5.05957 282.515 5.05957H247.487V82.2398H284.224C292.739 82.2398 299.516 80.3139 304.534 76.4525C309.552 72.591 312.061 67.4817 312.061 61.1344C312.061 56.4475 310.866 52.3797 308.465 48.9309C306.065 45.492 302.509 43.2714 297.797 42.2888H297.807ZM263.006 18.6779H280.688C289.588 18.6779 294.033 21.5863 294.033 27.4128C294.033 30.4391 292.848 32.8955 290.497 34.7919C288.136 36.6882 284.866 37.6315 280.688 37.6315H263.006V18.6779ZM293.411 65.9489C291.169 67.7273 287.879 68.6116 283.543 68.6116H263.006V50.336H284.116C287.998 50.336 291.08 51.1319 293.362 52.7236C295.644 54.3154 296.789 56.4672 296.789 59.1889C296.789 61.9106 295.663 64.1606 293.421 65.9391L293.411 65.9489Z" fill="white"/>
<path d="M340.708 5.05957H325.189V82.2398H340.708V5.05957Z" fill="white"/>
<path fill-rule="evenodd" clip-rule="evenodd" d="M160.74 21.8718V65.6155L198.119 87.4873L235.498 65.6155V21.8718L198.119 0L160.74 21.8718ZM176.169 57.3423C175.112 57.3423 174.253 56.4875 174.253 55.4361C174.253 54.3848 175.112 53.53 176.169 53.53C177.226 53.53 178.086 54.3848 178.086 55.4361C178.086 56.4875 177.226 57.3423 176.169 57.3423ZM221.263 57.0279L198.119 70.3219L177.918 58.7277C179.103 58.1087 179.903 56.8707 179.903 55.4459C179.903 54.9154 179.795 54.4143 179.587 53.9525L189.584 43.9991C190.661 44.8441 192.014 45.3452 193.496 45.3452C194.405 45.3452 195.264 45.1585 196.044 44.8146L199.778 51.0146C199.482 51.5452 199.304 52.1642 199.304 52.8225C199.304 54.8761 200.973 56.5366 203.038 56.5366C205.103 56.5366 206.772 54.8761 206.772 52.8225C206.772 52.3312 206.683 51.8694 206.505 51.4371L219.386 35.1462C219.782 35.2543 220.187 35.3133 220.611 35.3133C220.829 35.3133 221.046 35.2936 221.253 35.274V57.0475L221.263 57.0279ZM190.266 39.0666C190.266 37.2882 191.718 35.8537 193.496 35.8537C195.274 35.8537 196.726 37.298 196.726 39.0666C196.726 40.8353 195.274 42.2796 193.496 42.2796C191.718 42.2796 190.266 40.8353 190.266 39.0666ZM201.132 52.8127C201.132 51.7613 201.991 50.9065 203.048 50.9065C204.105 50.9065 204.964 51.7613 204.964 52.8127C204.964 53.864 204.105 54.7188 203.048 54.7188C201.991 54.7188 201.132 53.864 201.132 52.8127ZM220.621 28.3469C221.935 28.3469 222.992 29.3982 222.992 30.705C222.992 32.0119 221.935 33.0632 220.621 33.0632C219.307 33.0632 218.25 32.0119 218.25 30.705C218.25 29.3982 219.307 28.3469 220.621 28.3469ZM216.976 33.5348L204.451 49.3737C204.016 49.1969 203.542 49.0986 203.038 49.0986C202.702 49.0986 202.376 49.1477 202.07 49.2263L198.356 43.0657C199.255 41.9849 199.798 40.5896 199.798 39.0666C199.798 35.5982 196.973 32.7881 193.486 32.7881C189.999 32.7881 187.174 35.5982 187.174 39.0666C187.174 40.0197 187.381 40.9139 187.766 41.7196L177.483 51.9677C177.068 51.8105 176.624 51.722 176.159 51.722C175.735 51.722 175.34 51.7908 174.954 51.9186V30.4496L198.099 17.1555L216.897 27.9539C216.324 28.7203 215.978 29.6734 215.978 30.705C215.978 31.7367 216.344 32.7586 216.956 33.5348H216.976Z" fill="white"/>
<path d="M63.9203 98.8167V101.126H58.2601V114.695H55.7511V101.126H50.0909V98.8167H63.9203Z" fill="white"/>
<path d="M83.775 101.126H74.855V105.675H82.8366V107.984H74.855V112.347H83.775V114.685H72.3163V98.8069H83.775V101.116V101.126Z" fill="white"/>
<path d="M100.302 112.642C101.616 112.642 102.722 112.288 103.611 111.591C104.5 110.893 105.103 109.92 105.419 108.672H108.027C107.651 110.588 106.762 112.121 105.379 113.271C103.986 114.42 102.297 115 100.312 115C98.0002 115 96.0344 114.214 94.4341 112.642C92.8339 111.07 92.0239 109.105 92.0239 106.756C92.0239 104.408 92.824 102.433 94.4144 100.871C96.0147 99.3184 97.9705 98.5323 100.302 98.5323C102.287 98.5323 103.976 99.1022 105.369 100.232C106.762 101.372 107.641 102.895 108.017 104.811H105.409C105.093 103.563 104.49 102.6 103.601 101.903C102.712 101.205 101.606 100.861 100.292 100.861C98.6521 100.861 97.2791 101.411 96.1925 102.522C95.1059 103.622 94.5626 105.037 94.5626 106.747C94.5626 108.456 95.1059 109.851 96.1925 110.962C97.2791 112.072 98.6422 112.632 100.292 112.632L100.302 112.642Z" fill="white"/>
<path d="M128.327 98.8167H130.836V114.695H128.327V108.063H119.95V114.695H117.411V98.8167H119.95V105.724H128.327V98.8167Z" fill="white"/>
<path d="M152.203 98.8167H154.712V114.695H152.697L143.283 103.474V114.695H140.744V98.8167H142.789L152.203 110.146V98.8167Z" fill="white"/>
<path d="M166.524 100.93C168.144 99.3381 170.1 98.5323 172.401 98.5323C174.703 98.5323 176.659 99.3282 178.279 100.93C179.899 102.522 180.709 104.467 180.709 106.756C180.709 109.046 179.899 110.981 178.279 112.583C176.659 114.175 174.703 114.98 172.401 114.98C170.1 114.98 168.144 114.185 166.524 112.583C164.904 110.981 164.094 109.046 164.094 106.756C164.094 104.467 164.904 102.531 166.524 100.93ZM168.312 110.913C169.418 112.052 170.781 112.612 172.411 112.612C174.041 112.612 175.404 112.043 176.511 110.913C177.617 109.773 178.17 108.387 178.17 106.756C178.17 105.125 177.617 103.73 176.511 102.59C175.404 101.441 174.041 100.871 172.411 100.871C170.781 100.871 169.418 101.441 168.312 102.59C167.205 103.73 166.662 105.125 166.662 106.756C166.662 108.387 167.215 109.773 168.312 110.913Z" fill="white"/>
<path d="M192.613 112.356H201.128V114.695H190.074V98.8167H192.613V112.356Z" fill="white"/>
<path d="M210.681 100.93C212.301 99.3381 214.257 98.5323 216.559 98.5323C218.861 98.5323 220.816 99.3282 222.436 100.93C224.056 102.522 224.867 104.467 224.867 106.756C224.867 109.046 224.056 110.981 222.436 112.583C220.816 114.175 218.861 114.98 216.559 114.98C214.257 114.98 212.301 114.185 210.681 112.583C209.061 110.981 208.251 109.046 208.251 106.756C208.251 104.467 209.061 102.531 210.681 100.93ZM212.469 110.913C213.576 112.052 214.939 112.612 216.569 112.612C218.199 112.612 219.562 112.043 220.668 110.913C221.775 109.773 222.328 108.387 222.328 106.756C222.328 105.125 221.775 103.73 220.668 102.59C219.562 101.441 218.199 100.871 216.569 100.871C214.939 100.871 213.576 101.441 212.469 102.59C211.363 103.73 210.82 105.125 210.82 106.756C210.82 108.387 211.373 109.773 212.469 110.913Z" fill="white"/>
<path d="M241.787 106.077H249.907V114.694H247.911L247.723 111.962C246.499 113.967 244.582 114.979 241.974 114.979C239.613 114.979 237.648 114.193 236.067 112.621C234.497 111.048 233.706 109.152 233.706 106.922C233.706 104.495 234.516 102.49 236.126 100.908C237.737 99.3265 239.722 98.5404 242.093 98.5404C243.91 98.5404 245.53 99.0317 246.953 100.014C248.375 100.997 249.314 102.392 249.768 104.22H247.071C246.696 103.08 246.044 102.245 245.125 101.694C244.207 101.144 243.209 100.879 242.142 100.879C240.453 100.879 239.05 101.439 237.944 102.569C236.838 103.699 236.275 105.153 236.275 106.922C236.275 108.494 236.808 109.84 237.885 110.95C238.952 112.06 240.325 112.621 241.984 112.621C243.347 112.621 244.474 112.237 245.372 111.461C246.271 110.695 246.874 109.673 247.17 108.415H241.797V106.077H241.787Z" fill="white"/>
<path d="M260.19 98.8167H262.729V114.695H260.19V98.8167Z" fill="white"/>
<path d="M284.085 101.126H275.165V105.675H283.146V107.984H275.165V112.347H284.085V114.685H272.626V98.8069H284.085V101.116V101.126Z" fill="white"/>
<path d="M298.854 98.5314C299.634 98.5314 300.375 98.6199 301.057 98.7869C301.748 98.9539 302.39 99.2291 303.003 99.5926C303.615 99.9562 304.119 100.467 304.514 101.106C304.909 101.744 305.156 102.521 305.255 103.405H302.766C302.469 101.597 301.215 100.693 299.012 100.693C297.975 100.693 297.155 100.899 296.542 101.322C295.93 101.744 295.624 102.334 295.624 103.1C295.624 104.279 296.503 105.036 298.271 105.39L300.503 105.842C302.054 106.136 303.23 106.618 304.02 107.306C304.81 107.994 305.205 108.917 305.205 110.086C305.205 111.56 304.642 112.749 303.526 113.633C302.41 114.518 300.928 114.96 299.101 114.96C297.145 114.96 295.564 114.478 294.349 113.515C293.134 112.553 292.453 111.216 292.295 109.526H294.804C294.962 110.538 295.416 111.324 296.187 111.884C296.957 112.445 297.975 112.729 299.239 112.729C300.286 112.729 301.116 112.523 301.718 112.11C302.321 111.698 302.627 111.128 302.627 110.391C302.627 109.251 301.788 108.534 300.118 108.239L297.333 107.709C294.418 107.158 292.957 105.684 292.957 103.287C292.957 101.843 293.49 100.683 294.567 99.8186C295.634 98.9539 297.066 98.5216 298.854 98.5216V98.5314Z" fill="white"/>
</svg>
