<svg width="256" height="29" viewBox="0 0 256 29" fill="none" xmlns="http://www.w3.org/2000/svg">
<path d="M1.58963 21V5.96296H6.20815C8.85753 5.96296 10.8052 6.63605 12.0511 7.98222C13.3114 9.3284 13.9415 11.1758 13.9415 13.5244C13.9415 15.8301 13.3114 17.656 12.0511 19.0022C10.8052 20.3341 8.85753 21 6.20815 21H1.58963ZM3.39407 19.4963H6.16518C7.62593 19.4963 8.78593 19.26 9.64519 18.7874C10.5188 18.3005 11.1417 17.6131 11.5141 16.7252C11.8864 15.823 12.0726 14.756 12.0726 13.5244C12.0726 12.2642 11.8864 11.183 11.5141 10.2807C11.1417 9.37852 10.5188 8.68395 9.64519 8.19704C8.78593 7.71012 7.62593 7.46667 6.16518 7.46667H3.39407V19.4963ZM21.2299 21.2578C20.2131 21.2578 19.3109 21.0286 18.5232 20.5704C17.7356 20.0978 17.1126 19.4462 16.6544 18.6156C16.2104 17.7849 15.9884 16.804 15.9884 15.6726C15.9884 14.5556 16.2104 13.5817 16.6544 12.7511C17.0983 11.9062 17.7141 11.2546 18.5018 10.7963C19.3037 10.3237 20.2274 10.0874 21.2729 10.0874C22.304 10.0874 23.1919 10.3237 23.9366 10.7963C24.6956 11.2546 25.2756 11.8632 25.6766 12.6222C26.0776 13.3812 26.2781 14.1975 26.2781 15.0711C26.2781 15.2286 26.2709 15.3862 26.2566 15.5437C26.2566 15.7012 26.2566 15.8802 26.2566 16.0807H17.7714C17.8144 16.897 18.0005 17.5773 18.3299 18.1215C18.6736 18.6514 19.0961 19.0523 19.5973 19.3244C20.1129 19.5965 20.6571 19.7326 21.2299 19.7326C21.9746 19.7326 22.5976 19.5607 23.0988 19.217C23.6 18.8733 23.9652 18.4079 24.1944 17.8207H25.9773C25.6909 18.8089 25.1395 19.6323 24.3232 20.2911C23.5213 20.9356 22.4902 21.2578 21.2299 21.2578ZM21.2299 11.6126C20.3707 11.6126 19.6045 11.8775 18.9314 12.4074C18.2726 12.923 17.8931 13.682 17.7929 14.6844H24.4951C24.4521 13.7249 24.1228 12.9731 23.5069 12.4289C22.8911 11.8847 22.1321 11.6126 21.2299 11.6126ZM31.322 21L27.2835 10.3452H29.1739L32.3746 19.26L35.5968 10.3452H37.4442L33.4057 21H31.322ZM43.6974 21.2578C42.6806 21.2578 41.7783 21.0286 40.9907 20.5704C40.203 20.0978 39.5801 19.4462 39.1218 18.6156C38.6779 17.7849 38.4559 16.804 38.4559 15.6726C38.4559 14.5556 38.6779 13.5817 39.1218 12.7511C39.5658 11.9062 40.1816 11.2546 40.9692 10.7963C41.7712 10.3237 42.6949 10.0874 43.7403 10.0874C44.7714 10.0874 45.6593 10.3237 46.404 10.7963C47.163 11.2546 47.743 11.8632 48.144 12.6222C48.545 13.3812 48.7455 14.1975 48.7455 15.0711C48.7455 15.2286 48.7383 15.3862 48.724 15.5437C48.724 15.7012 48.724 15.8802 48.724 16.0807H40.2388C40.2818 16.897 40.468 17.5773 40.7974 18.1215C41.1411 18.6514 41.5635 19.0523 42.0648 19.3244C42.5803 19.5965 43.1245 19.7326 43.6974 19.7326C44.4421 19.7326 45.065 19.5607 45.5662 19.217C46.0675 18.8733 46.4327 18.4079 46.6618 17.8207H48.4448C48.1583 18.8089 47.607 19.6323 46.7907 20.2911C45.9887 20.9356 44.9576 21.2578 43.6974 21.2578ZM43.6974 11.6126C42.8381 11.6126 42.0719 11.8775 41.3988 12.4074C40.7401 12.923 40.3606 13.682 40.2603 14.6844H46.9625C46.9196 13.7249 46.5902 12.9731 45.9744 12.4289C45.3586 11.8847 44.5996 11.6126 43.6974 11.6126ZM51.1372 21V5.53333H52.9416V21H51.1372ZM60.754 21.2578C59.7515 21.2578 58.8493 21.0286 58.0473 20.5704C57.2453 20.1121 56.6081 19.4677 56.1355 18.637C55.6772 17.7921 55.4481 16.804 55.4481 15.6726C55.4481 14.5412 55.6844 13.5602 56.157 12.7296C56.6295 11.8847 57.2668 11.2331 58.0688 10.7748C58.8851 10.3165 59.7945 10.0874 60.797 10.0874C61.7994 10.0874 62.7016 10.3165 63.5036 10.7748C64.3056 11.2331 64.9357 11.8847 65.394 12.7296C65.8666 13.5602 66.1029 14.5412 66.1029 15.6726C66.1029 16.804 65.8666 17.7921 65.394 18.637C64.9214 19.4677 64.2769 20.1121 63.4607 20.5704C62.6587 21.0286 61.7565 21.2578 60.754 21.2578ZM60.754 19.7111C61.3698 19.7111 61.9426 19.5607 62.4725 19.26C63.0024 18.9593 63.432 18.5081 63.7614 17.9067C64.0908 17.3052 64.2555 16.5605 64.2555 15.6726C64.2555 14.7847 64.0908 14.04 63.7614 13.4385C63.4463 12.837 63.0239 12.3859 62.494 12.0852C61.9641 11.7844 61.3984 11.6341 60.797 11.6341C60.1811 11.6341 59.6083 11.7844 59.0784 12.0852C58.5486 12.3859 58.1189 12.837 57.7895 13.4385C57.4602 14.04 57.2955 14.7847 57.2955 15.6726C57.2955 16.5605 57.4602 17.3052 57.7895 17.9067C58.1189 18.5081 58.5414 18.9593 59.0569 19.26C59.5868 19.5607 60.1525 19.7111 60.754 19.7111ZM68.6118 25.7259V10.3452H70.2444L70.4163 12.1067C70.76 11.5911 71.2469 11.1257 71.877 10.7104C72.5215 10.2951 73.3378 10.0874 74.3259 10.0874C75.3857 10.0874 76.3094 10.3309 77.097 10.8178C77.8847 11.3047 78.4933 11.9706 78.923 12.8156C79.3669 13.6605 79.5889 14.62 79.5889 15.6941C79.5889 16.7681 79.3669 17.7277 78.923 18.5726C78.4933 19.4032 77.8775 20.062 77.0755 20.5489C76.2879 21.0215 75.3642 21.2578 74.3044 21.2578C73.4309 21.2578 72.6504 21.0788 71.963 20.7207C71.2899 20.3627 70.7743 19.8615 70.4163 19.217V25.7259H68.6118ZM74.1111 19.6896C74.8272 19.6896 75.4573 19.5249 76.0015 19.1956C76.5457 18.8519 76.9753 18.3793 77.2904 17.7778C77.6054 17.1763 77.763 16.4746 77.763 15.6726C77.763 14.8706 77.6054 14.1689 77.2904 13.5674C76.9753 12.9659 76.5457 12.5005 76.0015 12.1711C75.4573 11.8274 74.8272 11.6556 74.1111 11.6556C73.3951 11.6556 72.7649 11.8274 72.2207 12.1711C71.6765 12.5005 71.2469 12.9659 70.9318 13.5674C70.6168 14.1689 70.4593 14.8706 70.4593 15.6726C70.4593 16.4746 70.6168 17.1763 70.9318 17.7778C71.2469 18.3793 71.6765 18.8519 72.2207 19.1956C72.7649 19.5249 73.3951 19.6896 74.1111 19.6896ZM82.1007 21V10.3452H83.7333L83.8622 11.8919C84.2059 11.319 84.6642 10.8751 85.237 10.56C85.8098 10.2449 86.4543 10.0874 87.1703 10.0874C88.0153 10.0874 88.7385 10.2593 89.34 10.603C89.9558 10.9467 90.4284 11.4694 90.7577 12.1711C91.1301 11.5267 91.6385 11.0183 92.2829 10.6459C92.9417 10.2736 93.6506 10.0874 94.4096 10.0874C95.6842 10.0874 96.701 10.4741 97.46 11.2474C98.219 12.0064 98.5985 13.1807 98.5985 14.7704V21H96.8155V14.9637C96.8155 13.861 96.5935 13.0304 96.1496 12.4719C95.7056 11.9133 95.0684 11.6341 94.2377 11.6341C93.3785 11.6341 92.6624 11.9706 92.0896 12.6437C91.5311 13.3025 91.2518 14.2477 91.2518 15.4793V21H89.4474V14.9637C89.4474 13.861 89.2254 13.0304 88.7814 12.4719C88.3375 11.9133 87.7002 11.6341 86.8696 11.6341C86.0247 11.6341 85.3158 11.9706 84.7429 12.6437C84.1844 13.3025 83.9052 14.2477 83.9052 15.4793V21H82.1007ZM106.107 21.2578C105.09 21.2578 104.188 21.0286 103.4 20.5704C102.613 20.0978 101.99 19.4462 101.531 18.6156C101.087 17.7849 100.865 16.804 100.865 15.6726C100.865 14.5556 101.087 13.5817 101.531 12.7511C101.975 11.9062 102.591 11.2546 103.379 10.7963C104.181 10.3237 105.104 10.0874 106.15 10.0874C107.181 10.0874 108.069 10.3237 108.814 10.7963C109.573 11.2546 110.153 11.8632 110.554 12.6222C110.955 13.3812 111.155 14.1975 111.155 15.0711C111.155 15.2286 111.148 15.3862 111.134 15.5437C111.134 15.7012 111.134 15.8802 111.134 16.0807H102.648C102.691 16.897 102.878 17.5773 103.207 18.1215C103.551 18.6514 103.973 19.0523 104.474 19.3244C104.99 19.5965 105.534 19.7326 106.107 19.7326C106.852 19.7326 107.475 19.5607 107.976 19.217C108.477 18.8733 108.842 18.4079 109.071 17.8207H110.854C110.568 18.8089 110.017 19.6323 109.2 20.2911C108.398 20.9356 107.367 21.2578 106.107 21.2578ZM106.107 11.6126C105.248 11.6126 104.481 11.8775 103.808 12.4074C103.15 12.923 102.77 13.682 102.67 14.6844H109.372C109.329 13.7249 109 12.9731 108.384 12.4289C107.768 11.8847 107.009 11.6126 106.107 11.6126ZM113.547 21V10.3452H115.179L115.287 12.257C115.63 11.584 116.125 11.0541 116.769 10.6674C117.413 10.2807 118.144 10.0874 118.96 10.0874C120.22 10.0874 121.223 10.4741 121.967 11.2474C122.726 12.0064 123.106 13.1807 123.106 14.7704V21H121.302V14.9637C121.302 12.744 120.385 11.6341 118.552 11.6341C117.635 11.6341 116.869 11.9706 116.253 12.6437C115.652 13.3025 115.351 14.2477 115.351 15.4793V21H113.547ZM130.05 21C129.076 21 128.31 20.7637 127.752 20.2911C127.193 19.8185 126.914 18.9664 126.914 17.7348V11.8704H125.067V10.3452H126.914L127.15 7.78889H128.718V10.3452H131.855V11.8704H128.718V17.7348C128.718 18.4079 128.854 18.8662 129.127 19.1096C129.399 19.3388 129.878 19.4533 130.566 19.4533H131.683V21H130.05ZM145.525 21.2578C144.651 21.2578 143.871 21.0788 143.183 20.7207C142.51 20.3627 141.995 19.8615 141.637 19.217L141.465 21H139.832V5.53333H141.637V12.1067C141.98 11.5911 142.467 11.1257 143.097 10.7104C143.742 10.2951 144.558 10.0874 145.546 10.0874C146.606 10.0874 147.53 10.3309 148.317 10.8178C149.105 11.3047 149.714 11.9706 150.143 12.8156C150.587 13.6605 150.809 14.62 150.809 15.6941C150.809 16.7681 150.587 17.7277 150.143 18.5726C149.714 19.4032 149.098 20.062 148.296 20.5489C147.508 21.0215 146.585 21.2578 145.525 21.2578ZM145.331 19.6896C146.047 19.6896 146.678 19.5249 147.222 19.1956C147.766 18.8519 148.196 18.3793 148.511 17.7778C148.826 17.1763 148.983 16.4746 148.983 15.6726C148.983 14.8706 148.826 14.1689 148.511 13.5674C148.196 12.9659 147.766 12.5005 147.222 12.1711C146.678 11.8274 146.047 11.6556 145.331 11.6556C144.615 11.6556 143.985 11.8274 143.441 12.1711C142.897 12.5005 142.467 12.9659 142.152 13.5674C141.837 14.1689 141.68 14.8706 141.68 15.6726C141.68 16.4746 141.837 17.1763 142.152 17.7778C142.467 18.3793 142.897 18.8519 143.441 19.1956C143.985 19.5249 144.615 19.6896 145.331 19.6896ZM153.621 25.7259L156.263 19.9689H155.64L151.408 10.3452H153.363L156.886 18.637L160.624 10.3452H162.493L155.511 25.7259H153.621Z" fill="#A3AED0"/>
<g clip-path="url(#clip0_19_344)">
<path fill-rule="evenodd" clip-rule="evenodd" d="M179.891 4.56683C181.331 4.56683 182.524 4.95835 183.473 5.7414C184.422 6.52444 185.08 7.62963 185.444 9.06191H189.472C189.031 6.58144 187.947 4.60647 186.221 3.13702C184.495 1.66757 182.384 0.934082 179.891 0.934082C177.031 0.934082 174.619 1.88315 172.654 3.7813C170.688 5.67945 169.704 8.08806 169.704 11.0071C169.704 13.9262 170.688 16.3348 172.654 18.2355C174.619 20.1336 177.033 21.0827 179.891 21.0827C182.384 21.0827 184.495 20.3492 186.221 18.8797C187.947 17.4103 189.031 15.4353 189.472 12.9548H185.444C185.08 14.3871 184.422 15.4923 183.473 16.2754C182.524 17.0584 181.328 17.4499 179.891 17.4499C178.087 17.4499 176.6 16.8527 175.431 15.6608C174.26 14.4689 173.675 12.9177 173.675 11.0096C173.675 9.10156 174.26 7.55033 175.431 6.35842C176.602 5.1665 178.09 4.5693 179.891 4.5693V4.56683Z" fill="#A3AED0"/>
<path fill-rule="evenodd" clip-rule="evenodd" d="M196.926 1.276H193.012V20.7407H207.028V17.1327H196.926V1.276Z" fill="#A3AED0"/>
<path fill-rule="evenodd" clip-rule="evenodd" d="M244.81 10.6651C245.635 10.3603 246.298 9.81518 246.796 9.03461C247.294 8.25156 247.543 7.37435 247.543 6.4005C247.543 4.79724 246.963 3.54337 245.802 2.63642C244.641 1.72947 243.024 1.276 240.954 1.276H232.12V20.7407H241.385C243.532 20.7407 245.241 20.255 246.507 19.2811C247.772 18.3073 248.405 17.0187 248.405 15.4179C248.405 14.2359 248.104 13.21 247.498 12.3403C246.893 11.473 245.996 10.9129 244.808 10.6651H244.81ZM236.034 4.71051H240.493C242.738 4.71051 243.859 5.44399 243.859 6.91344C243.859 7.67667 243.56 8.29617 242.967 8.77442C242.371 9.25267 241.547 9.49056 240.493 9.49056H236.034V4.71051ZM243.702 16.6321C243.136 17.0807 242.307 17.3037 241.213 17.3037H236.034V12.6946H241.357C242.336 12.6946 243.114 12.8953 243.689 13.2968C244.265 13.6982 244.554 14.2409 244.554 14.9273C244.554 15.6137 244.27 16.1812 243.704 16.6297L243.702 16.6321Z" fill="#A3AED0"/>
<path d="M255.63 1.276H251.716V20.7407H255.63V1.276Z" fill="#A3AED0"/>
<path fill-rule="evenodd" clip-rule="evenodd" d="M210.242 5.51602V16.5481L219.669 22.0641L229.096 16.5481V5.51602L219.669 0L210.242 5.51602ZM214.133 14.4616C213.867 14.4616 213.65 14.246 213.65 13.9809C213.65 13.7157 213.867 13.5001 214.133 13.5001C214.4 13.5001 214.617 13.7157 214.617 13.9809C214.617 14.246 214.4 14.4616 214.133 14.4616ZM225.506 14.3823L219.669 17.735L214.574 14.811C214.873 14.6549 215.075 14.3426 215.075 13.9833C215.075 13.8495 215.048 13.7231 214.995 13.6067L217.517 11.0965C217.788 11.3096 218.129 11.436 218.503 11.436C218.732 11.436 218.949 11.3889 219.146 11.3021L220.088 12.8658C220.013 12.9996 219.968 13.1557 219.968 13.3217C219.968 13.8396 220.389 14.2584 220.91 14.2584C221.43 14.2584 221.851 13.8396 221.851 13.3217C221.851 13.1978 221.829 13.0813 221.784 12.9723L225.033 8.8638C225.132 8.89106 225.234 8.90592 225.342 8.90592C225.396 8.90592 225.451 8.90097 225.504 8.89601V14.3873L225.506 14.3823ZM217.688 9.85252C217.688 9.404 218.055 9.04221 218.503 9.04221C218.951 9.04221 219.318 9.40648 219.318 9.85252C219.318 10.2986 218.951 10.6628 218.503 10.6628C218.055 10.6628 217.688 10.2986 217.688 9.85252ZM220.429 13.3192C220.429 13.0541 220.646 12.8385 220.912 12.8385C221.179 12.8385 221.395 13.0541 221.395 13.3192C221.395 13.5844 221.179 13.8 220.912 13.8C220.646 13.8 220.429 13.5844 220.429 13.3192ZM225.344 7.14902C225.675 7.14902 225.942 7.41417 225.942 7.74374C225.942 8.07332 225.675 8.33846 225.344 8.33846C225.013 8.33846 224.746 8.07332 224.746 7.74374C224.746 7.41417 225.013 7.14902 225.344 7.14902ZM224.425 8.45741L221.266 12.4519C221.156 12.4073 221.037 12.3826 220.91 12.3826C220.825 12.3826 220.743 12.3949 220.665 12.4148L219.729 10.8611C219.955 10.5885 220.092 10.2366 220.092 9.85252C220.092 8.97778 219.38 8.26908 218.501 8.26908C217.621 8.26908 216.909 8.97778 216.909 9.85252C216.909 10.0929 216.961 10.3184 217.058 10.5216L214.465 13.1061C214.36 13.0665 214.248 13.0442 214.131 13.0442C214.024 13.0442 213.924 13.0615 213.827 13.0937V7.67931L219.664 4.32658L224.405 7.0499C224.26 7.24319 224.173 7.48355 224.173 7.74374C224.173 8.00393 224.265 8.26164 224.42 8.45741H224.425Z" fill="#A3AED0"/>
<path d="M185.824 24.9214V25.5038H184.397V28.9259H183.764V25.5038H182.337V24.9214H185.824Z" fill="#A3AED0"/>
<path d="M190.832 25.5036H188.582V26.6509H190.595V27.2333H188.582V28.3335H190.832V28.9233H187.942V24.9188H190.832V25.5012V25.5036Z" fill="#A3AED0"/>
<path d="M195 28.408C195.331 28.408 195.61 28.3188 195.834 28.1429C196.059 27.9669 196.211 27.7216 196.29 27.4069H196.948C196.853 27.8901 196.629 28.2767 196.28 28.5666C195.929 28.8565 195.503 29.0027 195.002 29.0027C194.419 29.0027 193.924 28.8045 193.52 28.408C193.117 28.0115 192.912 27.5159 192.912 26.9237C192.912 26.3315 193.114 25.8334 193.515 25.4394C193.919 25.0479 194.412 24.8496 195 24.8496C195.501 24.8496 195.927 24.9933 196.278 25.2783C196.629 25.5658 196.851 25.9498 196.946 26.433H196.288C196.208 26.1183 196.056 25.8755 195.832 25.6996C195.608 25.5236 195.329 25.4369 194.997 25.4369C194.584 25.4369 194.238 25.5757 193.964 25.8557C193.69 26.1332 193.552 26.49 193.552 26.9212C193.552 27.3524 193.69 27.7043 193.964 27.9843C194.238 28.2643 194.581 28.4055 194.997 28.4055L195 28.408Z" fill="#A3AED0"/>
<path d="M202.068 24.9214H202.7V28.9259H202.068V27.2532H199.955V28.9259H199.315V24.9214H199.955V26.6635H202.068V24.9214Z" fill="#A3AED0"/>
<path d="M208.089 24.9214H208.722V28.9259H208.214L205.839 26.096V28.9259H205.199V24.9214H205.715L208.089 27.7786V24.9214Z" fill="#A3AED0"/>
<path d="M211.701 25.4542C212.109 25.0528 212.603 24.8496 213.183 24.8496C213.764 24.8496 214.257 25.0503 214.665 25.4542C215.074 25.8557 215.278 26.3463 215.278 26.9237C215.278 27.5011 215.074 27.9892 214.665 28.3931C214.257 28.7946 213.764 28.9978 213.183 28.9978C212.603 28.9978 212.109 28.7971 211.701 28.3931C211.292 27.9892 211.088 27.5011 211.088 26.9237C211.088 26.3463 211.292 25.8582 211.701 25.4542ZM212.152 27.9719C212.431 28.2593 212.775 28.4006 213.186 28.4006C213.597 28.4006 213.941 28.2569 214.22 27.9719C214.499 27.6844 214.638 27.335 214.638 26.9237C214.638 26.5123 214.499 26.1605 214.22 25.873C213.941 25.5831 213.597 25.4394 213.186 25.4394C212.775 25.4394 212.431 25.5831 212.152 25.873C211.873 26.1605 211.736 26.5123 211.736 26.9237C211.736 27.335 211.875 27.6844 212.152 27.9719Z" fill="#A3AED0"/>
<path d="M218.28 28.3361H220.428V28.9259H217.64V24.9214H218.28V28.3361Z" fill="#A3AED0"/>
<path d="M222.837 25.4542C223.246 25.0528 223.739 24.8496 224.32 24.8496C224.9 24.8496 225.393 25.0503 225.802 25.4542C226.21 25.8557 226.415 26.3463 226.415 26.9237C226.415 27.5011 226.21 27.9892 225.802 28.3931C225.393 28.7946 224.9 28.9978 224.32 28.9978C223.739 28.9978 223.246 28.7971 222.837 28.3931C222.429 27.9892 222.224 27.5011 222.224 26.9237C222.224 26.3463 222.429 25.8582 222.837 25.4542ZM223.288 27.9719C223.567 28.2593 223.911 28.4006 224.322 28.4006C224.733 28.4006 225.077 28.2569 225.356 27.9719C225.635 27.6844 225.774 27.335 225.774 26.9237C225.774 26.5123 225.635 26.1605 225.356 25.873C225.077 25.5831 224.733 25.4394 224.322 25.4394C223.911 25.4394 223.567 25.5831 223.288 25.873C223.009 26.1605 222.872 26.5123 222.872 26.9237C222.872 27.335 223.012 27.6844 223.288 27.9719Z" fill="#A3AED0"/>
<path d="M230.682 26.7523H232.73V28.9255H232.227L232.179 28.2366C231.87 28.7421 231.387 28.9974 230.729 28.9974C230.134 28.9974 229.638 28.7991 229.24 28.4027C228.843 28.0062 228.644 27.5279 228.644 26.9654C228.644 26.3534 228.848 25.8478 229.255 25.4489C229.661 25.0499 230.161 24.8517 230.759 24.8517C231.218 24.8517 231.626 24.9756 231.985 25.2234C232.344 25.4712 232.58 25.8231 232.695 26.284H232.015C231.92 25.9965 231.756 25.7859 231.524 25.6471C231.292 25.5084 231.041 25.4414 230.772 25.4414C230.346 25.4414 229.992 25.5827 229.713 25.8677C229.434 26.1526 229.292 26.5194 229.292 26.9654C229.292 27.3619 229.426 27.7014 229.698 27.9814C229.967 28.2614 230.313 28.4027 230.732 28.4027C231.076 28.4027 231.36 28.306 231.586 28.1103C231.813 27.917 231.965 27.6593 232.04 27.3421H230.685V26.7523H230.682Z" fill="#A3AED0"/>
<path d="M235.323 24.9214H235.964V28.9259H235.323V24.9214Z" fill="#A3AED0"/>
<path d="M241.349 25.5036H239.1V26.6509H241.113V27.2333H239.1V28.3335H241.349V28.9233H238.46V24.9188H241.349V25.5012V25.5036Z" fill="#A3AED0"/>
<path d="M245.074 24.8494C245.271 24.8494 245.458 24.8717 245.63 24.9138C245.804 24.956 245.966 25.0253 246.12 25.117C246.275 25.2087 246.402 25.3376 246.502 25.4986C246.601 25.6597 246.664 25.8555 246.688 26.0785H246.061C245.986 25.6225 245.67 25.3946 245.114 25.3946C244.852 25.3946 244.646 25.4466 244.491 25.5532C244.337 25.6597 244.259 25.8084 244.259 26.0017C244.259 26.299 244.481 26.4898 244.927 26.579L245.49 26.693C245.881 26.7674 246.178 26.8888 246.377 27.0623C246.576 27.2357 246.676 27.4686 246.676 27.7635C246.676 28.1352 246.534 28.4351 246.252 28.6581C245.971 28.8811 245.597 28.9926 245.136 28.9926C244.643 28.9926 244.245 28.8712 243.938 28.6283C243.632 28.3855 243.46 28.0485 243.42 27.6223H244.053C244.093 27.8775 244.207 28.0758 244.401 28.217C244.596 28.3582 244.852 28.4301 245.171 28.4301C245.435 28.4301 245.645 28.3781 245.797 28.274C245.949 28.1699 246.026 28.0262 246.026 27.8403C246.026 27.5529 245.814 27.372 245.393 27.2977L244.69 27.1639C243.956 27.0251 243.587 26.6534 243.587 26.0488C243.587 25.6845 243.721 25.3921 243.993 25.174C244.262 24.956 244.623 24.8469 245.074 24.8469V24.8494Z" fill="#A3AED0"/>
</g>
<defs>
<clipPath id="clip0_19_344">
<rect width="85.9259" height="29" fill="#A3AED0" transform="translate(169.704)"/>
</clipPath>
</defs>
</svg>
